# xmcd
#
# Track frame offsets:
#	150
#	16188
#	28533
#	42914
#	61621
#	77356
#	94970
#	110609
#	125256
#	140777
#	156008
#	169586
#	183009
#	198289
#	215832
#	229537
#	247121
#	262932
#	277985
#
# Disc length: 3913 seconds
#
# Revision: 0
# Processed by: cddbd v1.5.2PL0 Copyright (c) Steve Scherf et al.
# Submitted via: audiograbber 1.83.01
#
DISCID=f50f4713
DTITLE=Various Artist - Country Radio July 2016
DYEAR=2016
DGENRE=Country
TTITLE0=Brothers Osborne - 21 Summer
TTITLE1=Maddie and Tae - Sierra (Promo Only Clean Edit)
TTITLE2=Florida Georgia Line - H.O.L.Y.
TTITLE3=Alan Jackson - The One You're Waiting On
TTITLE4=High Valley - Make You Mine
TTITLE5=Hillary Scott and The Scott Family - Thy Will
TTITLE6=The Cadillac Three - Drunk Like You
TTITLE7=Darryl Worley - Rainmaker
TTITLE8=Darius Rucker - So I Sang
TTITLE9=Mindy Miller - Lie To Me
TTITLE10=Parmalee - Roots
TTITLE11=Jerrod Niemann and Lee Brice - A Little More Love
TTITLE12=Alan Turner and The Steel Horse Band - Windows And Mirrors
TTITLE13=Brad Paisley f. Demi Lovato - Without A Fight
TTITLE14=Craig Morgan - I'll Be Home Soon
TTITLE15=Brett Eldredge - Wanna Be That Song
TTITLE16=Josh Turner - Hometown Girl
TTITLE17=Joe Nichols - Undone
TTITLE18=Garry Lee - America
EXTD=
EXTT0=
EXTT1=
EXTT2=
EXTT3=
EXTT4=
EXTT5=
EXTT6=
EXTT7=
EXTT8=
EXTT9=
EXTT10=
EXTT11=
EXTT12=
EXTT13=
EXTT14=
EXTT15=
EXTT16=
EXTT17=
EXTT18=
PLAYORDER=
